<mxfile host="app.diagrams.net" agent="Mozilla/5.0 (Windows NT 10.0; Win64; x64) AppleWebKit/537.36 (KHTML, like Gecko) Chrome/131.0.0.0 Safari/537.36" version="25.0.3">
  <diagram name="Page-1" id="tPlB7eAq6gYKFy8CrvAI">
    <mxGraphModel dx="1477" dy="1764" grid="1" gridSize="10" guides="1" tooltips="1" connect="1" arrows="1" fold="1" page="1" pageScale="1" pageWidth="850" pageHeight="1100" math="0" shadow="0">
      <root>
        <mxCell id="0" />
        <mxCell id="1" parent="0" />
        <mxCell id="ujJ7CXa7yKwV0E2JyI4P-10" value="" style="swimlane;startSize=0;" parent="1" vertex="1">
          <mxGeometry x="160" y="-630" width="620" height="1270" as="geometry" />
        </mxCell>
        <mxCell id="ujJ7CXa7yKwV0E2JyI4P-24" value="View Page Home" style="ellipse;whiteSpace=wrap;html=1;align=center;fillColor=#0000FF;" parent="ujJ7CXa7yKwV0E2JyI4P-10" vertex="1">
          <mxGeometry x="40" y="260" width="140" height="50" as="geometry" />
        </mxCell>
        <mxCell id="ujJ7CXa7yKwV0E2JyI4P-23" value="Consulter films et horaires" style="ellipse;whiteSpace=wrap;html=1;align=center;" parent="ujJ7CXa7yKwV0E2JyI4P-10" vertex="1">
          <mxGeometry x="280" y="265" width="140" height="40" as="geometry" />
        </mxCell>
        <mxCell id="ujJ7CXa7yKwV0E2JyI4P-37" style="edgeStyle=orthogonalEdgeStyle;rounded=0;orthogonalLoop=1;jettySize=auto;html=1;entryX=0.5;entryY=1;entryDx=0;entryDy=0;exitX=0.5;exitY=0;exitDx=0;exitDy=0;" parent="ujJ7CXa7yKwV0E2JyI4P-10" source="ujJ7CXa7yKwV0E2JyI4P-35" target="ujJ7CXa7yKwV0E2JyI4P-25" edge="1">
          <mxGeometry relative="1" as="geometry" />
        </mxCell>
        <mxCell id="ujJ7CXa7yKwV0E2JyI4P-25" value="s&#39;inscrire" style="ellipse;whiteSpace=wrap;html=1;align=center;fillColor=#3333FF;" parent="ujJ7CXa7yKwV0E2JyI4P-10" vertex="1">
          <mxGeometry x="40" y="110" width="140" height="40" as="geometry" />
        </mxCell>
        <mxCell id="ujJ7CXa7yKwV0E2JyI4P-33" value="Book a ticket" style="ellipse;whiteSpace=wrap;html=1;align=center;" parent="ujJ7CXa7yKwV0E2JyI4P-10" vertex="1">
          <mxGeometry x="240" y="60" width="140" height="40" as="geometry" />
        </mxCell>
        <mxCell id="ujJ7CXa7yKwV0E2JyI4P-35" value="Create account" style="ellipse;whiteSpace=wrap;html=1;align=center;" parent="ujJ7CXa7yKwV0E2JyI4P-10" vertex="1">
          <mxGeometry x="55" y="170" width="110" height="20" as="geometry" />
        </mxCell>
        <mxCell id="ujJ7CXa7yKwV0E2JyI4P-40" value="View booking history" style="ellipse;whiteSpace=wrap;html=1;align=center;" parent="ujJ7CXa7yKwV0E2JyI4P-10" vertex="1">
          <mxGeometry x="240" y="110" width="140" height="40" as="geometry" />
        </mxCell>
        <mxCell id="ujJ7CXa7yKwV0E2JyI4P-42" value="Modify account info" style="ellipse;whiteSpace=wrap;html=1;align=center;" parent="ujJ7CXa7yKwV0E2JyI4P-10" vertex="1">
          <mxGeometry x="240" y="160" width="140" height="40" as="geometry" />
        </mxCell>
        <mxCell id="ujJ7CXa7yKwV0E2JyI4P-45" value="cancel ticket" style="ellipse;whiteSpace=wrap;html=1;align=center;" parent="ujJ7CXa7yKwV0E2JyI4P-10" vertex="1">
          <mxGeometry x="470" y="24" width="140" height="40" as="geometry" />
        </mxCell>
        <mxCell id="ujJ7CXa7yKwV0E2JyI4P-46" value="modify ticket info" style="ellipse;whiteSpace=wrap;html=1;align=center;" parent="ujJ7CXa7yKwV0E2JyI4P-10" vertex="1">
          <mxGeometry x="470" y="90" width="140" height="40" as="geometry" />
        </mxCell>
        <mxCell id="ujJ7CXa7yKwV0E2JyI4P-65" value="Delete a movie" style="ellipse;whiteSpace=wrap;html=1;align=center;fillColor=#0000FF;" parent="ujJ7CXa7yKwV0E2JyI4P-10" vertex="1">
          <mxGeometry x="40" y="490" width="140" height="50" as="geometry" />
        </mxCell>
        <mxCell id="ujJ7CXa7yKwV0E2JyI4P-71" value="Add a movie" style="ellipse;whiteSpace=wrap;html=1;align=center;fillColor=#0000FF;" parent="ujJ7CXa7yKwV0E2JyI4P-10" vertex="1">
          <mxGeometry x="40" y="380" width="140" height="40" as="geometry" />
        </mxCell>
        <mxCell id="ujJ7CXa7yKwV0E2JyI4P-74" value="Choosing a room" style="ellipse;whiteSpace=wrap;html=1;align=center;" parent="ujJ7CXa7yKwV0E2JyI4P-10" vertex="1">
          <mxGeometry x="236.5" y="340" width="183.5" height="36" as="geometry" />
        </mxCell>
        <mxCell id="ujJ7CXa7yKwV0E2JyI4P-76" value="Choosing movie&amp;nbsp;&lt;div&gt;show time&amp;nbsp;&lt;/div&gt;" style="ellipse;whiteSpace=wrap;html=1;align=center;" parent="ujJ7CXa7yKwV0E2JyI4P-10" vertex="1">
          <mxGeometry x="232.5" y="383" width="187.5" height="34" as="geometry" />
        </mxCell>
        <mxCell id="ujJ7CXa7yKwV0E2JyI4P-77" value="Associate screenings&amp;nbsp;&lt;div&gt;with a film&lt;/div&gt;" style="ellipse;whiteSpace=wrap;html=1;align=center;fillColor=#0000FF;" parent="ujJ7CXa7yKwV0E2JyI4P-10" vertex="1">
          <mxGeometry x="40" y="610" width="183.5" height="34" as="geometry" />
        </mxCell>
        <mxCell id="ujJ7CXa7yKwV0E2JyI4P-86" value="Admin" style="shape=umlActor;verticalLabelPosition=bottom;verticalAlign=top;html=1;outlineConnect=0;" parent="ujJ7CXa7yKwV0E2JyI4P-10" vertex="1">
          <mxGeometry x="-100" y="426" width="80" height="160" as="geometry" />
        </mxCell>
        <mxCell id="ujJ7CXa7yKwV0E2JyI4P-89" value="Update a movie" style="ellipse;whiteSpace=wrap;html=1;align=center;fillColor=#0000FF;" parent="ujJ7CXa7yKwV0E2JyI4P-10" vertex="1">
          <mxGeometry x="40" y="440" width="140" height="40" as="geometry" />
        </mxCell>
        <mxCell id="ujJ7CXa7yKwV0E2JyI4P-92" value="View sales statistics" style="ellipse;whiteSpace=wrap;html=1;align=center;fillColor=#0000FF;" parent="ujJ7CXa7yKwV0E2JyI4P-10" vertex="1">
          <mxGeometry x="40" y="550" width="140" height="50" as="geometry" />
        </mxCell>
        <mxCell id="ujJ7CXa7yKwV0E2JyI4P-107" value="Update room" style="ellipse;whiteSpace=wrap;html=1;align=center;" parent="ujJ7CXa7yKwV0E2JyI4P-10" vertex="1">
          <mxGeometry x="242.5" y="470" width="100" height="34" as="geometry" />
        </mxCell>
        <mxCell id="ujJ7CXa7yKwV0E2JyI4P-110" value="Update movie&amp;nbsp;&lt;div&gt;show time&amp;nbsp;&lt;/div&gt;" style="ellipse;whiteSpace=wrap;html=1;align=center;" parent="ujJ7CXa7yKwV0E2JyI4P-10" vertex="1">
          <mxGeometry x="242.5" y="426" width="117.5" height="32" as="geometry" />
        </mxCell>
        <mxCell id="ujJ7CXa7yKwV0E2JyI4P-115" value="manage a projection" style="ellipse;whiteSpace=wrap;html=1;align=center;fillColor=#0000FF;" parent="ujJ7CXa7yKwV0E2JyI4P-10" vertex="1">
          <mxGeometry x="50" y="876" width="140" height="50" as="geometry" />
        </mxCell>
        <mxCell id="ujJ7CXa7yKwV0E2JyI4P-119" value="Create screening schedules" style="ellipse;whiteSpace=wrap;html=1;align=center;fillColor=#0000FF;" parent="ujJ7CXa7yKwV0E2JyI4P-10" vertex="1">
          <mxGeometry x="50" y="770" width="140" height="40" as="geometry" />
        </mxCell>
        <mxCell id="ujJ7CXa7yKwV0E2JyI4P-120" value="Choosing a room" style="ellipse;whiteSpace=wrap;html=1;align=center;" parent="ujJ7CXa7yKwV0E2JyI4P-10" vertex="1">
          <mxGeometry x="254.5" y="734" width="157.5" height="36" as="geometry" />
        </mxCell>
        <mxCell id="ujJ7CXa7yKwV0E2JyI4P-121" value="Choosing movie&amp;nbsp;&lt;div&gt;show time&amp;nbsp;&lt;/div&gt;" style="ellipse;whiteSpace=wrap;html=1;align=center;" parent="ujJ7CXa7yKwV0E2JyI4P-10" vertex="1">
          <mxGeometry x="251.5" y="773" width="163.5" height="34" as="geometry" />
        </mxCell>
        <mxCell id="ujJ7CXa7yKwV0E2JyI4P-122" value="Associate screenings&amp;nbsp;&lt;div&gt;with a film&lt;/div&gt;" style="ellipse;whiteSpace=wrap;html=1;align=center;" parent="ujJ7CXa7yKwV0E2JyI4P-10" vertex="1">
          <mxGeometry x="252.5" y="810" width="157.5" height="34" as="geometry" />
        </mxCell>
        <mxCell id="ujJ7CXa7yKwV0E2JyI4P-132" value="Check for overlaps" style="ellipse;whiteSpace=wrap;html=1;align=center;fillColor=#0000FF;" parent="ujJ7CXa7yKwV0E2JyI4P-10" vertex="1">
          <mxGeometry x="50" y="826" width="140" height="40" as="geometry" />
        </mxCell>
        <mxCell id="ujJ7CXa7yKwV0E2JyI4P-133" value="Delete projection" style="ellipse;whiteSpace=wrap;html=1;align=center;" parent="ujJ7CXa7yKwV0E2JyI4P-10" vertex="1">
          <mxGeometry x="252.5" y="906" width="117.5" height="34" as="geometry" />
        </mxCell>
        <mxCell id="ujJ7CXa7yKwV0E2JyI4P-134" value="Update projection" style="ellipse;whiteSpace=wrap;html=1;align=center;" parent="ujJ7CXa7yKwV0E2JyI4P-10" vertex="1">
          <mxGeometry x="252.5" y="866" width="117.5" height="32" as="geometry" />
        </mxCell>
        <mxCell id="ujJ7CXa7yKwV0E2JyI4P-147" value="Track reservations" style="ellipse;whiteSpace=wrap;html=1;align=center;fillColor=#0000FF;" parent="ujJ7CXa7yKwV0E2JyI4P-10" vertex="1">
          <mxGeometry x="69" y="1040" width="140" height="40" as="geometry" />
        </mxCell>
        <mxCell id="ujJ7CXa7yKwV0E2JyI4P-148" value="Check room capacity" style="ellipse;whiteSpace=wrap;html=1;align=center;fillColor=#0000FF;" parent="ujJ7CXa7yKwV0E2JyI4P-10" vertex="1">
          <mxGeometry x="71.5" y="1140" width="140" height="40" as="geometry" />
        </mxCell>
        <UserObject label="Gestion de db de CinÃ©ma" treeRoot="1" id="ujJ7CXa7yKwV0E2JyI4P-12">
          <mxCell style="whiteSpace=wrap;html=1;align=center;treeFolding=1;treeMoving=1;newEdgeStyle={&quot;edgeStyle&quot;:&quot;elbowEdgeStyle&quot;,&quot;startArrow&quot;:&quot;none&quot;,&quot;endArrow&quot;:&quot;none&quot;};fillColor=#FFFF33;" parent="ujJ7CXa7yKwV0E2JyI4P-10" vertex="1">
            <mxGeometry width="200" height="30" as="geometry" />
          </mxCell>
        </UserObject>
        <mxCell id="fbzdmr948flMc3CwNR19-3" value="&lt;span style=&quot;font-size: 6px; text-wrap-mode: wrap; background-color: rgb(251, 251, 251);&quot;&gt;Extend&lt;/span&gt;" style="endArrow=open;endSize=12;dashed=1;html=1;rounded=0;entryX=1;entryY=0.5;entryDx=0;entryDy=0;exitX=0.671;exitY=1.05;exitDx=0;exitDy=0;exitPerimeter=0;" edge="1" parent="ujJ7CXa7yKwV0E2JyI4P-10" target="ujJ7CXa7yKwV0E2JyI4P-25">
          <mxGeometry width="160" relative="1" as="geometry">
            <mxPoint x="240.68000000000006" y="181" as="sourcePoint" />
            <mxPoint x="340" y="200" as="targetPoint" />
          </mxGeometry>
        </mxCell>
        <mxCell id="fbzdmr948flMc3CwNR19-4" value="&lt;span style=&quot;font-size: 6px; text-wrap-mode: wrap; background-color: rgb(251, 251, 251);&quot;&gt;Extend&lt;/span&gt;" style="endArrow=open;endSize=12;dashed=1;html=1;rounded=0;entryX=1;entryY=0.5;entryDx=0;entryDy=0;exitX=0;exitY=0.5;exitDx=0;exitDy=0;" edge="1" parent="ujJ7CXa7yKwV0E2JyI4P-10" source="ujJ7CXa7yKwV0E2JyI4P-40" target="ujJ7CXa7yKwV0E2JyI4P-25">
          <mxGeometry width="160" relative="1" as="geometry">
            <mxPoint x="250.68000000000006" y="191" as="sourcePoint" />
            <mxPoint x="190" y="140" as="targetPoint" />
          </mxGeometry>
        </mxCell>
        <mxCell id="fbzdmr948flMc3CwNR19-5" value="&lt;span style=&quot;font-size: 6px; text-wrap-mode: wrap; background-color: rgb(251, 251, 251);&quot;&gt;Extend&lt;/span&gt;" style="endArrow=open;endSize=12;dashed=1;html=1;rounded=0;entryX=1;entryY=0.5;entryDx=0;entryDy=0;exitX=0;exitY=0.5;exitDx=0;exitDy=0;" edge="1" parent="ujJ7CXa7yKwV0E2JyI4P-10" source="ujJ7CXa7yKwV0E2JyI4P-33" target="ujJ7CXa7yKwV0E2JyI4P-25">
          <mxGeometry width="160" relative="1" as="geometry">
            <mxPoint x="250" y="140" as="sourcePoint" />
            <mxPoint x="190" y="140" as="targetPoint" />
          </mxGeometry>
        </mxCell>
        <mxCell id="fbzdmr948flMc3CwNR19-6" value="&lt;span style=&quot;font-size: 6px; text-wrap-mode: wrap; background-color: rgb(251, 251, 251);&quot;&gt;Extend&lt;/span&gt;" style="endArrow=open;endSize=12;dashed=1;html=1;rounded=0;entryX=1;entryY=0.5;entryDx=0;entryDy=0;exitX=0;exitY=0.5;exitDx=0;exitDy=0;" edge="1" parent="ujJ7CXa7yKwV0E2JyI4P-10" source="ujJ7CXa7yKwV0E2JyI4P-45" target="ujJ7CXa7yKwV0E2JyI4P-33">
          <mxGeometry width="160" relative="1" as="geometry">
            <mxPoint x="250" y="90" as="sourcePoint" />
            <mxPoint x="190" y="140" as="targetPoint" />
          </mxGeometry>
        </mxCell>
        <mxCell id="fbzdmr948flMc3CwNR19-7" value="&lt;span style=&quot;font-size: 6px; text-wrap-mode: wrap; background-color: rgb(251, 251, 251);&quot;&gt;Extend&lt;/span&gt;" style="endArrow=open;endSize=12;dashed=1;html=1;rounded=0;entryX=1;entryY=0.5;entryDx=0;entryDy=0;exitX=0;exitY=0.5;exitDx=0;exitDy=0;" edge="1" parent="ujJ7CXa7yKwV0E2JyI4P-10" source="ujJ7CXa7yKwV0E2JyI4P-46" target="ujJ7CXa7yKwV0E2JyI4P-33">
          <mxGeometry width="160" relative="1" as="geometry">
            <mxPoint x="480" y="54" as="sourcePoint" />
            <mxPoint x="390" y="90" as="targetPoint" />
          </mxGeometry>
        </mxCell>
        <mxCell id="fbzdmr948flMc3CwNR19-8" value="" style="endArrow=none;html=1;rounded=0;exitX=0.5;exitY=0.5;exitDx=0;exitDy=0;exitPerimeter=0;entryX=0;entryY=0.5;entryDx=0;entryDy=0;" edge="1" parent="ujJ7CXa7yKwV0E2JyI4P-10" source="ujJ7CXa7yKwV0E2JyI4P-86" target="ujJ7CXa7yKwV0E2JyI4P-71">
          <mxGeometry width="50" height="50" relative="1" as="geometry">
            <mxPoint x="-70" y="439" as="sourcePoint" />
            <mxPoint x="30" y="544" as="targetPoint" />
          </mxGeometry>
        </mxCell>
        <mxCell id="fbzdmr948flMc3CwNR19-9" value="" style="endArrow=none;html=1;rounded=0;entryX=0;entryY=0.5;entryDx=0;entryDy=0;" edge="1" parent="ujJ7CXa7yKwV0E2JyI4P-10" target="ujJ7CXa7yKwV0E2JyI4P-89">
          <mxGeometry width="50" height="50" relative="1" as="geometry">
            <mxPoint x="-60" y="506" as="sourcePoint" />
            <mxPoint x="50" y="410" as="targetPoint" />
          </mxGeometry>
        </mxCell>
        <mxCell id="fbzdmr948flMc3CwNR19-10" value="" style="endArrow=none;html=1;rounded=0;entryX=0;entryY=0.5;entryDx=0;entryDy=0;exitX=0.5;exitY=0.5;exitDx=0;exitDy=0;exitPerimeter=0;" edge="1" parent="ujJ7CXa7yKwV0E2JyI4P-10" source="ujJ7CXa7yKwV0E2JyI4P-86" target="ujJ7CXa7yKwV0E2JyI4P-65">
          <mxGeometry width="50" height="50" relative="1" as="geometry">
            <mxPoint x="-50" y="516" as="sourcePoint" />
            <mxPoint x="50" y="516" as="targetPoint" />
          </mxGeometry>
        </mxCell>
        <mxCell id="fbzdmr948flMc3CwNR19-12" value="&lt;span style=&quot;font-size: 6px; text-wrap-mode: wrap; background-color: rgb(251, 251, 251);&quot;&gt;extend&lt;/span&gt;" style="endArrow=open;endSize=12;dashed=1;html=1;rounded=0;entryX=1;entryY=0.5;entryDx=0;entryDy=0;exitX=0;exitY=0.5;exitDx=0;exitDy=0;" edge="1" parent="ujJ7CXa7yKwV0E2JyI4P-10" source="ujJ7CXa7yKwV0E2JyI4P-74" target="ujJ7CXa7yKwV0E2JyI4P-71">
          <mxGeometry width="160" relative="1" as="geometry">
            <mxPoint x="247" y="447" as="sourcePoint" />
            <mxPoint x="190" y="410" as="targetPoint" />
          </mxGeometry>
        </mxCell>
        <mxCell id="fbzdmr948flMc3CwNR19-13" value="&lt;span style=&quot;font-size: 6px; text-wrap-mode: wrap; background-color: rgb(251, 251, 251);&quot;&gt;extend&lt;/span&gt;" style="endArrow=open;endSize=12;dashed=1;html=1;rounded=0;exitX=0;exitY=0.5;exitDx=0;exitDy=0;" edge="1" parent="ujJ7CXa7yKwV0E2JyI4P-10" source="ujJ7CXa7yKwV0E2JyI4P-76">
          <mxGeometry width="160" relative="1" as="geometry">
            <mxPoint x="180" y="400" as="sourcePoint" />
            <mxPoint x="180" y="400" as="targetPoint" />
          </mxGeometry>
        </mxCell>
        <mxCell id="fbzdmr948flMc3CwNR19-14" value="&lt;span style=&quot;font-size: 6px; text-wrap-mode: wrap; background-color: rgb(251, 251, 251);&quot;&gt;extend&lt;/span&gt;" style="endArrow=open;endSize=12;dashed=1;html=1;rounded=0;entryX=1;entryY=0.5;entryDx=0;entryDy=0;exitX=0;exitY=0.5;exitDx=0;exitDy=0;" edge="1" parent="ujJ7CXa7yKwV0E2JyI4P-10" source="ujJ7CXa7yKwV0E2JyI4P-110" target="ujJ7CXa7yKwV0E2JyI4P-89">
          <mxGeometry width="160" relative="1" as="geometry">
            <mxPoint x="181" y="512" as="sourcePoint" />
            <mxPoint x="238" y="470" as="targetPoint" />
          </mxGeometry>
        </mxCell>
        <mxCell id="fbzdmr948flMc3CwNR19-15" value="&lt;span style=&quot;font-size: 6px; text-wrap-mode: wrap; background-color: rgb(251, 251, 251);&quot;&gt;extend&lt;/span&gt;" style="endArrow=open;endSize=12;dashed=1;html=1;rounded=0;entryX=1;entryY=0.5;entryDx=0;entryDy=0;exitX=0;exitY=0.5;exitDx=0;exitDy=0;" edge="1" parent="ujJ7CXa7yKwV0E2JyI4P-10" source="ujJ7CXa7yKwV0E2JyI4P-107" target="ujJ7CXa7yKwV0E2JyI4P-89">
          <mxGeometry width="160" relative="1" as="geometry">
            <mxPoint x="253" y="496" as="sourcePoint" />
            <mxPoint x="190" y="516" as="targetPoint" />
          </mxGeometry>
        </mxCell>
        <mxCell id="fbzdmr948flMc3CwNR19-16" value="&lt;span style=&quot;font-size: 6px; text-wrap-mode: wrap; background-color: rgb(251, 251, 251);&quot;&gt;extend&lt;/span&gt;" style="endArrow=open;endSize=12;dashed=1;html=1;rounded=0;exitX=0;exitY=0.5;exitDx=0;exitDy=0;entryX=1;entryY=0.5;entryDx=0;entryDy=0;" edge="1" parent="ujJ7CXa7yKwV0E2JyI4P-10" source="ujJ7CXa7yKwV0E2JyI4P-23" target="ujJ7CXa7yKwV0E2JyI4P-24">
          <mxGeometry width="160" relative="1" as="geometry">
            <mxPoint x="190" y="410" as="sourcePoint" />
            <mxPoint x="247" y="368" as="targetPoint" />
          </mxGeometry>
        </mxCell>
        <mxCell id="fbzdmr948flMc3CwNR19-17" value="" style="endArrow=none;html=1;rounded=0;entryX=0;entryY=0.5;entryDx=0;entryDy=0;exitX=0.5;exitY=0.5;exitDx=0;exitDy=0;exitPerimeter=0;" edge="1" parent="ujJ7CXa7yKwV0E2JyI4P-10" source="ujJ7CXa7yKwV0E2JyI4P-86" target="ujJ7CXa7yKwV0E2JyI4P-92">
          <mxGeometry width="50" height="50" relative="1" as="geometry">
            <mxPoint x="-50" y="516" as="sourcePoint" />
            <mxPoint x="50" y="571" as="targetPoint" />
          </mxGeometry>
        </mxCell>
        <mxCell id="fbzdmr948flMc3CwNR19-18" value="" style="endArrow=none;html=1;rounded=0;exitX=0.5;exitY=0.5;exitDx=0;exitDy=0;exitPerimeter=0;entryX=0;entryY=0.5;entryDx=0;entryDy=0;" edge="1" parent="ujJ7CXa7yKwV0E2JyI4P-10" source="ujJ7CXa7yKwV0E2JyI4P-86" target="ujJ7CXa7yKwV0E2JyI4P-77">
          <mxGeometry width="50" height="50" relative="1" as="geometry">
            <mxPoint x="-50" y="516" as="sourcePoint" />
            <mxPoint x="50" y="635" as="targetPoint" />
          </mxGeometry>
        </mxCell>
        <mxCell id="fbzdmr948flMc3CwNR19-19" value="paiement" style="ellipse;whiteSpace=wrap;html=1;align=center;" vertex="1" parent="ujJ7CXa7yKwV0E2JyI4P-10">
          <mxGeometry x="470" y="140" width="140" height="40" as="geometry" />
        </mxCell>
        <mxCell id="fbzdmr948flMc3CwNR19-22" value="include" style="endArrow=open;endSize=12;dashed=1;html=1;rounded=0;exitX=1;exitY=0.5;exitDx=0;exitDy=0;entryX=0;entryY=0.5;entryDx=0;entryDy=0;" edge="1" parent="ujJ7CXa7yKwV0E2JyI4P-10" source="ujJ7CXa7yKwV0E2JyI4P-119" target="ujJ7CXa7yKwV0E2JyI4P-120">
          <mxGeometry width="160" relative="1" as="geometry">
            <mxPoint x="187.5" y="786" as="sourcePoint" />
            <mxPoint x="277.5" y="866" as="targetPoint" />
          </mxGeometry>
        </mxCell>
        <mxCell id="fbzdmr948flMc3CwNR19-23" value="include" style="endArrow=open;endSize=12;dashed=1;html=1;rounded=0;exitX=1;exitY=0.5;exitDx=0;exitDy=0;entryX=0;entryY=0.5;entryDx=0;entryDy=0;" edge="1" parent="ujJ7CXa7yKwV0E2JyI4P-10" source="ujJ7CXa7yKwV0E2JyI4P-119" target="ujJ7CXa7yKwV0E2JyI4P-121">
          <mxGeometry width="160" relative="1" as="geometry">
            <mxPoint x="200" y="800" as="sourcePoint" />
            <mxPoint x="264" y="762" as="targetPoint" />
          </mxGeometry>
        </mxCell>
        <mxCell id="fbzdmr948flMc3CwNR19-26" value="&lt;span style=&quot;font-size: 6px; text-wrap-mode: wrap; background-color: rgb(251, 251, 251);&quot;&gt;extend&lt;/span&gt;" style="endArrow=open;endSize=12;dashed=1;html=1;rounded=0;exitX=0;exitY=0.5;exitDx=0;exitDy=0;entryX=1;entryY=0.5;entryDx=0;entryDy=0;" edge="1" parent="ujJ7CXa7yKwV0E2JyI4P-10" source="ujJ7CXa7yKwV0E2JyI4P-122" target="ujJ7CXa7yKwV0E2JyI4P-119">
          <mxGeometry width="160" relative="1" as="geometry">
            <mxPoint x="236.5" y="800" as="sourcePoint" />
            <mxPoint x="184.5" y="800" as="targetPoint" />
          </mxGeometry>
        </mxCell>
        <mxCell id="fbzdmr948flMc3CwNR19-27" value="&lt;span style=&quot;font-size: 6px; text-wrap-mode: wrap; background-color: rgb(251, 251, 251);&quot;&gt;extend&lt;/span&gt;" style="endArrow=open;endSize=12;dashed=1;html=1;rounded=0;exitX=0;exitY=0.5;exitDx=0;exitDy=0;" edge="1" parent="ujJ7CXa7yKwV0E2JyI4P-10" source="ujJ7CXa7yKwV0E2JyI4P-133">
          <mxGeometry width="160" relative="1" as="geometry">
            <mxPoint x="251.5" y="940" as="sourcePoint" />
            <mxPoint x="190" y="900" as="targetPoint" />
          </mxGeometry>
        </mxCell>
        <mxCell id="fbzdmr948flMc3CwNR19-28" value="&lt;span style=&quot;font-size: 6px; text-wrap-mode: wrap; background-color: rgb(251, 251, 251);&quot;&gt;extend&lt;/span&gt;" style="endArrow=open;endSize=12;dashed=1;html=1;rounded=0;exitX=0;exitY=0.5;exitDx=0;exitDy=0;entryX=1;entryY=0.5;entryDx=0;entryDy=0;" edge="1" parent="ujJ7CXa7yKwV0E2JyI4P-10" source="ujJ7CXa7yKwV0E2JyI4P-134" target="ujJ7CXa7yKwV0E2JyI4P-115">
          <mxGeometry width="160" relative="1" as="geometry">
            <mxPoint x="263" y="933" as="sourcePoint" />
            <mxPoint x="200" y="910" as="targetPoint" />
          </mxGeometry>
        </mxCell>
        <mxCell id="ujJ7CXa7yKwV0E2JyI4P-11" value="Client" style="shape=umlActor;verticalLabelPosition=bottom;verticalAlign=top;html=1;outlineConnect=0;" parent="1" vertex="1">
          <mxGeometry x="60" y="-530" width="80" height="160" as="geometry" />
        </mxCell>
        <mxCell id="ujJ7CXa7yKwV0E2JyI4P-130" value="Projection Manager" style="shape=umlActor;verticalLabelPosition=bottom;verticalAlign=top;html=1;outlineConnect=0;" parent="1" vertex="1">
          <mxGeometry x="50" y="116" width="80" height="160" as="geometry" />
        </mxCell>
        <mxCell id="ujJ7CXa7yKwV0E2JyI4P-145" value="Ticket Manager" style="shape=umlActor;verticalLabelPosition=bottom;verticalAlign=top;html=1;outlineConnect=0;" parent="1" vertex="1">
          <mxGeometry x="40" y="400" width="80" height="160" as="geometry" />
        </mxCell>
        <mxCell id="fbzdmr948flMc3CwNR19-1" value="" style="endArrow=none;html=1;rounded=0;exitX=0.5;exitY=0.5;exitDx=0;exitDy=0;exitPerimeter=0;entryX=0;entryY=0.5;entryDx=0;entryDy=0;" edge="1" parent="1" source="ujJ7CXa7yKwV0E2JyI4P-11" target="ujJ7CXa7yKwV0E2JyI4P-25">
          <mxGeometry width="50" height="50" relative="1" as="geometry">
            <mxPoint x="400" y="-500" as="sourcePoint" />
            <mxPoint x="450" y="-550" as="targetPoint" />
          </mxGeometry>
        </mxCell>
        <mxCell id="fbzdmr948flMc3CwNR19-2" value="" style="endArrow=none;html=1;rounded=0;exitX=0.5;exitY=0.5;exitDx=0;exitDy=0;exitPerimeter=0;entryX=0;entryY=0.5;entryDx=0;entryDy=0;" edge="1" parent="1" source="ujJ7CXa7yKwV0E2JyI4P-11" target="ujJ7CXa7yKwV0E2JyI4P-24">
          <mxGeometry width="50" height="50" relative="1" as="geometry">
            <mxPoint x="400" y="-500" as="sourcePoint" />
            <mxPoint x="450" y="-550" as="targetPoint" />
          </mxGeometry>
        </mxCell>
        <mxCell id="fbzdmr948flMc3CwNR19-21" value="include" style="endArrow=open;endSize=12;dashed=1;html=1;rounded=0;exitX=1;exitY=0.5;exitDx=0;exitDy=0;" edge="1" parent="1" source="ujJ7CXa7yKwV0E2JyI4P-33">
          <mxGeometry width="160" relative="1" as="geometry">
            <mxPoint x="550" y="-470" as="sourcePoint" />
            <mxPoint x="630" y="-470" as="targetPoint" />
          </mxGeometry>
        </mxCell>
        <mxCell id="fbzdmr948flMc3CwNR19-29" value="" style="endArrow=none;html=1;rounded=0;exitX=0.5;exitY=0.5;exitDx=0;exitDy=0;exitPerimeter=0;entryX=0;entryY=0.5;entryDx=0;entryDy=0;" edge="1" parent="1" source="ujJ7CXa7yKwV0E2JyI4P-145" target="ujJ7CXa7yKwV0E2JyI4P-147">
          <mxGeometry width="50" height="50" relative="1" as="geometry">
            <mxPoint x="380" y="440" as="sourcePoint" />
            <mxPoint x="430" y="390" as="targetPoint" />
          </mxGeometry>
        </mxCell>
        <mxCell id="fbzdmr948flMc3CwNR19-30" value="" style="endArrow=none;html=1;rounded=0;entryX=0;entryY=0.5;entryDx=0;entryDy=0;" edge="1" parent="1" target="ujJ7CXa7yKwV0E2JyI4P-148">
          <mxGeometry width="50" height="50" relative="1" as="geometry">
            <mxPoint x="80" y="480" as="sourcePoint" />
            <mxPoint x="239" y="440" as="targetPoint" />
          </mxGeometry>
        </mxCell>
        <mxCell id="fbzdmr948flMc3CwNR19-31" value="" style="endArrow=none;html=1;rounded=0;exitX=0.5;exitY=0.5;exitDx=0;exitDy=0;exitPerimeter=0;entryX=0;entryY=0.5;entryDx=0;entryDy=0;" edge="1" parent="1" source="ujJ7CXa7yKwV0E2JyI4P-130" target="ujJ7CXa7yKwV0E2JyI4P-119">
          <mxGeometry width="50" height="50" relative="1" as="geometry">
            <mxPoint x="370" y="200" as="sourcePoint" />
            <mxPoint x="420" y="150" as="targetPoint" />
          </mxGeometry>
        </mxCell>
        <mxCell id="fbzdmr948flMc3CwNR19-32" value="" style="endArrow=none;html=1;rounded=0;exitX=0.5;exitY=0.5;exitDx=0;exitDy=0;exitPerimeter=0;entryX=0;entryY=0.5;entryDx=0;entryDy=0;" edge="1" parent="1" source="ujJ7CXa7yKwV0E2JyI4P-130" target="ujJ7CXa7yKwV0E2JyI4P-132">
          <mxGeometry width="50" height="50" relative="1" as="geometry">
            <mxPoint x="100" y="206" as="sourcePoint" />
            <mxPoint x="220" y="170" as="targetPoint" />
          </mxGeometry>
        </mxCell>
        <mxCell id="fbzdmr948flMc3CwNR19-33" value="" style="endArrow=none;html=1;rounded=0;exitX=0.5;exitY=0.5;exitDx=0;exitDy=0;exitPerimeter=0;entryX=0;entryY=0.5;entryDx=0;entryDy=0;" edge="1" parent="1" source="ujJ7CXa7yKwV0E2JyI4P-130" target="ujJ7CXa7yKwV0E2JyI4P-115">
          <mxGeometry width="50" height="50" relative="1" as="geometry">
            <mxPoint x="100" y="206" as="sourcePoint" />
            <mxPoint x="220" y="226" as="targetPoint" />
          </mxGeometry>
        </mxCell>
        <mxCell id="fbzdmr948flMc3CwNR19-34" value="Bank&lt;div&gt;&lt;br&gt;&lt;/div&gt;" style="shape=umlActor;verticalLabelPosition=bottom;verticalAlign=top;html=1;outlineConnect=0;" vertex="1" parent="1">
          <mxGeometry x="800" y="-520" width="30" height="60" as="geometry" />
        </mxCell>
        <mxCell id="fbzdmr948flMc3CwNR19-35" value="" style="endArrow=none;html=1;rounded=0;entryX=0.5;entryY=0.5;entryDx=0;entryDy=0;entryPerimeter=0;exitX=1;exitY=0.5;exitDx=0;exitDy=0;" edge="1" parent="1" source="fbzdmr948flMc3CwNR19-19" target="fbzdmr948flMc3CwNR19-34">
          <mxGeometry width="50" height="50" relative="1" as="geometry">
            <mxPoint x="750" y="-320" as="sourcePoint" />
            <mxPoint x="800" y="-370" as="targetPoint" />
          </mxGeometry>
        </mxCell>
      </root>
    </mxGraphModel>
  </diagram>
</mxfile>
